<?xml version="1.0" encoding="UTF-8"?>
<svg id="Layer_1" data-name="Layer 1" xmlns="http://www.w3.org/2000/svg" viewBox="0 0 702.05 373.67">
  <defs>
    <style>
      .cls-1 {
        fill: #fff;
      }

      .cls-1, .cls-2 {
        stroke-width: 2px;
      }

      .cls-1, .cls-2, .cls-3, .cls-4 {
        stroke: #fff;
        stroke-miterlimit: 10;
      }

      .cls-2, .cls-3, .cls-4 {
        fill: none;
      }

      .cls-3 {
        stroke-dasharray: 0 0 12.15 12.15;
      }

      .cls-3, .cls-4 {
        stroke-width: 4px;
      }
    </style>
  </defs>
  <line class="cls-2" x1="351.02" y1="40.51" x2="351.02" y2="371.78"/>
  <circle class="cls-2" cx="351.02" cy="206.15" r="45.95"/>
  <rect class="cls-2" x="2.1" y="162.77" width="33.43" height="86.76"/>
  <polyline class="cls-2" points="666.52 162.77 699.95 162.77 699.95 249.53 666.52 249.53"/>
  <rect class="cls-2" x="35.53" y="140.68" width="38.05" height="130.93"/>
  <polyline class="cls-2" points="666.52 271.61 628.46 271.61 628.46 140.68 666.52 140.68"/>
  <polygon class="cls-2" points="110.46 305.42 36.2 305.41 34.86 108.21 109.11 108.22 110.46 305.42"/>
  <polygon class="cls-2" points="666.26 304.75 592.01 304.74 590.66 107.54 664.92 107.55 666.26 304.75"/>
  <circle class="cls-1" cx="351.02" cy="206.15" r="3.88"/>
  <circle class="cls-1" cx="92.56" cy="206.15" r="2.91"/>
  <circle class="cls-1" cx="610.37" cy="206.15" r="2.91"/>
  <path class="cls-2" d="M590.29,243.87c-12.56,0-22.74-16.49-22.74-36.83s10.18-36.83,22.74-36.83"/>
  <path class="cls-2" d="M110.46,169.32c12.56,0,22.74,16.49,22.74,36.83s-10.18,36.83-22.74,36.83"/>
  <g>
    <line class="cls-4" x1="36.42" y1="12.72" x2="42.42" y2="12.7"/>
    <line class="cls-3" x1="54.57" y1="12.68" x2="655.75" y2="11.4"/>
    <line class="cls-4" x1="661.83" y1="11.39" x2="667.83" y2="11.37"/>
  </g>
  <line class="cls-2" x1="34.86" y1="41.4" x2="34.86" y2="372.67"/>
  <line class="cls-2" x1="665.85" y1="372.67" x2="34.86" y2="372.67"/>
  <line class="cls-2" x1="665.2" y1="42.05" x2="665.85" y2="372.67"/>
  <line class="cls-2" x1="34.86" y1="41.4" x2="665.2" y2="42.05"/>
</svg>